<?xml version="1.0" encoding="UTF-8" standalone="no"?>
<!DOCTYPE svg PUBLIC "-//W3C//DTD SVG 1.1//EN"
 "http://www.w3.org/Graphics/SVG/1.1/DTD/svg11.dtd">
<!-- Generated by graphviz version 2.38.0 (20140413.2041)
 -->
<!-- Title: G Pages: 1 -->
<svg width="568pt" height="217pt"
 viewBox="0.00 0.00 568.00 217.00" xmlns="http://www.w3.org/2000/svg" xmlns:xlink="http://www.w3.org/1999/xlink">
<g id="graph0" class="graph" transform="scale(1 1) rotate(0) translate(4 213)">
<title>G</title>
<polygon fill="white" stroke="none" points="-4,4 -4,-213 564,-213 564,4 -4,4"/>
<!-- java.lang.foreign.SequenceLayout -->
<g id="node1" class="node"><title>java.lang.foreign.SequenceLayout</title>
<g id="a_node1"><a xlink:href="../../../java/lang/foreign/SequenceLayout.html" xlink:title="java.lang.foreign.SequenceLayout">
<text text-anchor="middle" x="64" y="-101.4" font-family="DejaVuSans" font-size="12.00" fill="#e76f00">SequenceLayout</text>
</a>
</g>
</g>
<!-- java.lang.foreign.MemoryLayout -->
<g id="node2" class="node"><title>java.lang.foreign.MemoryLayout</title>
<g id="a_node2"><a xlink:href="../../../java/lang/foreign/MemoryLayout.html" xlink:title="java.lang.foreign.MemoryLayout">
<text text-anchor="middle" x="290" y="-185.4" font-family="DejaVuSans" font-size="12.00" fill="#e76f00">MemoryLayout</text>
</a>
</g>
</g>
<!-- java.lang.foreign.SequenceLayout&#45;&gt;java.lang.foreign.MemoryLayout -->
<g id="edge1" class="edge"><title>java.lang.foreign.SequenceLayout&#45;&gt;java.lang.foreign.MemoryLayout</title>
<path fill="none" stroke="#999999" stroke-width="2" d="M117.846,-125.037C150.544,-136.901 192.447,-152.105 226.724,-164.541"/>
<polygon fill="#999999" stroke="#999999" stroke-width="2" points="236.176,-167.971 225.241,-168.79 231.305,-166.735 226.605,-165.03 226.775,-164.56 226.946,-164.09 231.646,-165.795 228.31,-160.33 236.176,-167.971 236.176,-167.971"/>
</g>
<!-- java.lang.foreign.GroupLayout -->
<g id="node3" class="node"><title>java.lang.foreign.GroupLayout</title>
<g id="a_node3"><a xlink:href="../../../java/lang/foreign/GroupLayout.html" xlink:title="java.lang.foreign.GroupLayout">
<text text-anchor="middle" x="217" y="-101.4" font-family="DejaVuSans" font-size="12.00" fill="#e76f00">GroupLayout</text>
</a>
</g>
</g>
<!-- java.lang.foreign.GroupLayout&#45;&gt;java.lang.foreign.MemoryLayout -->
<g id="edge2" class="edge"><title>java.lang.foreign.GroupLayout&#45;&gt;java.lang.foreign.MemoryLayout</title>
<path fill="none" stroke="#999999" stroke-width="2" d="M234.671,-125.35C243.997,-135.825 255.58,-148.837 265.735,-160.243"/>
<polygon fill="#999999" stroke="#999999" stroke-width="2" points="272.491,-167.833 262.481,-163.356 268.793,-164.431 265.469,-160.696 265.842,-160.364 266.216,-160.031 269.54,-163.766 269.203,-157.372 272.491,-167.833 272.491,-167.833"/>
</g>
<!-- java.lang.foreign.StructLayout -->
<g id="node4" class="node"><title>java.lang.foreign.StructLayout</title>
<g id="a_node4"><a xlink:href="../../../java/lang/foreign/StructLayout.html" xlink:title="java.lang.foreign.StructLayout">
<text text-anchor="middle" x="147" y="-17.4" font-family="DejaVuSans" font-size="12.00" fill="#e76f00">StructLayout</text>
</a>
</g>
</g>
<!-- java.lang.foreign.StructLayout&#45;&gt;java.lang.foreign.GroupLayout -->
<g id="edge3" class="edge"><title>java.lang.foreign.StructLayout&#45;&gt;java.lang.foreign.GroupLayout</title>
<path fill="none" stroke="#999999" stroke-width="2" d="M163.945,-41.3499C172.801,-51.7243 183.781,-64.5866 193.451,-75.9138"/>
<polygon fill="#999999" stroke="#999999" stroke-width="2" points="200.211,-83.8329 190.296,-79.1489 196.584,-80.3547 193.338,-76.5519 193.718,-76.2272 194.099,-75.9026 197.345,-79.7054 197.141,-73.3055 200.211,-83.8329 200.211,-83.8329"/>
</g>
<!-- java.lang.foreign.UnionLayout -->
<g id="node5" class="node"><title>java.lang.foreign.UnionLayout</title>
<g id="a_node5"><a xlink:href="../../../java/lang/foreign/UnionLayout.html" xlink:title="java.lang.foreign.UnionLayout">
<text text-anchor="middle" x="288" y="-17.4" font-family="DejaVuSans" font-size="12.00" fill="#e76f00">UnionLayout</text>
</a>
</g>
</g>
<!-- java.lang.foreign.UnionLayout&#45;&gt;java.lang.foreign.GroupLayout -->
<g id="edge4" class="edge"><title>java.lang.foreign.UnionLayout&#45;&gt;java.lang.foreign.GroupLayout</title>
<path fill="none" stroke="#999999" stroke-width="2" d="M270.813,-41.3499C261.743,-51.825 250.477,-64.8366 240.6,-76.2433"/>
<polygon fill="#999999" stroke="#999999" stroke-width="2" points="234.029,-83.8329 237.173,-73.3273 236.924,-79.7256 240.197,-75.9456 240.575,-76.2729 240.953,-76.6002 237.68,-80.3802 243.977,-79.2186 234.029,-83.8329 234.029,-83.8329"/>
</g>
<!-- java.lang.foreign.PaddingLayout -->
<g id="node6" class="node"><title>java.lang.foreign.PaddingLayout</title>
<g id="a_node6"><a xlink:href="../../../java/lang/foreign/PaddingLayout.html" xlink:title="java.lang.foreign.PaddingLayout">
<text text-anchor="middle" x="364" y="-101.4" font-family="DejaVuSans" font-size="12.00" fill="#e76f00">PaddingLayout</text>
</a>
</g>
</g>
<!-- java.lang.foreign.PaddingLayout&#45;&gt;java.lang.foreign.MemoryLayout -->
<g id="edge5" class="edge"><title>java.lang.foreign.PaddingLayout&#45;&gt;java.lang.foreign.MemoryLayout</title>
<path fill="none" stroke="#999999" stroke-width="2" d="M346.087,-125.35C336.634,-135.825 324.891,-148.837 314.598,-160.243"/>
<polygon fill="#999999" stroke="#999999" stroke-width="2" points="307.748,-167.833 311.107,-157.394 310.727,-163.786 314.077,-160.074 314.448,-160.409 314.819,-160.744 311.469,-164.456 317.789,-163.424 307.748,-167.833 307.748,-167.833"/>
</g>
<!-- java.lang.foreign.ValueLayout -->
<g id="node7" class="node"><title>java.lang.foreign.ValueLayout</title>
<g id="a_node7"><a xlink:href="../../../java/lang/foreign/ValueLayout.html" xlink:title="java.lang.foreign.ValueLayout">
<text text-anchor="middle" x="509" y="-101.4" font-family="DejaVuSans" font-size="12.00" fill="#e76f00">ValueLayout</text>
</a>
</g>
</g>
<!-- java.lang.foreign.ValueLayout&#45;&gt;java.lang.foreign.MemoryLayout -->
<g id="edge6" class="edge"><title>java.lang.foreign.ValueLayout&#45;&gt;java.lang.foreign.MemoryLayout</title>
<path fill="none" stroke="#999999" stroke-width="2" d="M457.931,-124.622C426.296,-136.467 385.459,-151.757 351.977,-164.294"/>
<polygon fill="#999999" stroke="#999999" stroke-width="2" points="342.292,-167.92 350.079,-160.199 346.8,-165.699 351.482,-163.945 351.657,-164.414 351.833,-164.882 347.15,-166.635 353.235,-168.628 342.292,-167.92 342.292,-167.92"/>
</g>
</g>
</svg>
